<svg xmlns="http://www.w3.org/2000/svg" width="134" height="34" viewBox="0 0 376.799 95.629"><g fill="#FFFFFF"><path d="M21.94 9.592h.03V78.037h-.01c-.1 2.312-2.126 4.162-4.614 4.162H4.626c-2.49 0-4.514-1.85-4.616-4.163H0V9.593h.032C.426 4.232 5.178 0 10.986 0c5.807 0 10.56 4.232 10.955 9.592M79.286 9.592h-.03V78.037h.01c.1 2.312 2.127 4.162 4.615 4.162H96.6c2.49 0 4.515-1.85 4.617-4.163h.01V9.593h-.032C100.8 4.232 96.05 0 90.24 0c-5.805 0-10.558 4.232-10.954 9.592"></path><path d="M44.208 95.629c-2.576 0-4.666-1.777-4.666-3.969v-0.33V68.672v-9.726c-0.367-7.886-4.151-15.015-10.116-20.327l0.014-0.012L3.311 16.183l0.008-0.007c-2.046-1.712-3.318-4.103-3.318-6.749C0.001 4.221 4.919 0 10.986 0c3.084 0 5.869 1.092 7.864 2.848l0.014-0.012 31.75 27.247 31.75-27.247 0.014 0.012C84.373 1.092 87.158 0 90.242 0c6.067 0 10.985 4.221 10.985 9.427 0 2.646-1.272 5.037-3.318 6.749l0.008 0.007L71.788 38.607l0.014 0.012c-5.965 5.312-9.749 12.441-10.116 20.327v9.726V91.33v0.33c0 2.191-2.09 3.969-4.666 3.969"></path></g><path fill="#FFFFFF" stroke="#FFFFFF" stroke-width="2.5" stroke-linejoin="round" stroke-miterlimit="10" d="M163.723 61.396V37.514c0-7.11-4.874-11.263-10.784-11.263-5.592 0-9.905 4.474-9.905 11.184v23.963h-5.99V37.273c0-10.063 7.11-16.454 14.776-16.454 7.908 0 13.47 6.77 15.067 9.487 1.598-2.716 7.416-9.488 15.32-9.488 7.67 0 14.78 6.39 14.78 16.453v24.123h-5.99V37.434c0-6.71-4.315-11.183-9.905-11.183-5.912 0-10.783 4.154-10.783 11.264v23.883h-6.587zM216.555 77.21h-6.47l7.27-16.374-16.296-39.378h6.63l12.86 32.75 13.098-32.75h6.55zM276.14 27.93V5.482h5.99v55.913h-5.99v-6.39c-2.954 4.31-7.667 7.028-14.296 7.028-11.662 0-19.33-9.188-19.33-20.608 0-11.422 7.668-20.607 19.33-20.607 6.63 0 11.342 2.794 14.297 7.11zm.32 13.497c0-8.227-4.952-15.176-13.82-15.176-8.864 0-14.136 6.95-14.136 15.177 0 8.228 5.27 15.177 14.137 15.177 8.868 0 13.82-6.95 13.82-15.177zM323.664 27.93v-6.472h5.99v39.938h-5.99v-6.39c-2.955 4.31-7.668 7.028-14.297 7.028-11.662 0-19.33-9.188-19.33-20.608 0-11.422 7.668-20.607 19.33-20.607 6.63 0 11.342 2.794 14.297 7.11zm.318 13.497c0-8.227-4.95-15.176-13.818-15.176-8.865 0-14.137 6.95-14.137 15.177 0 8.228 5.27 15.177 14.137 15.177s13.818-6.95 13.818-15.177zM351.906 77.21h-6.47l7.27-16.374-16.296-39.378h6.63l12.858 32.75 13.1-32.75h6.55z"></path></svg>